<svg xmlns="http://www.w3.org/2000/svg" xmlns:xlink="http://www.w3.org/1999/xlink" preserveAspectRatio="xMidYMid meet" version="1.0" viewBox="207.4 63.6 215.2 275.4" zoomAndPan="magnify" style="fill: rgb(0, 0, 0);" original_string_length="1992" width="215px" height="275px"><g fill-rule="evenodd"><g stroke-linecap="round" stroke-linejoin="round"><g id="__id7_sh0ej2ren"><path d="m276.03 64.828l10.625 10.625v67.312c-7.0866 10.63-48.434 89.774-70.875 134.66-7.0866 14.173-7.0674 31.889 3.5625 46.062 7.0866 10.63 19.462 14.188 31.875 14.188h127.56c12.414 0 24.788-3.5576 31.875-14.188 10.63-14.173 10.649-31.889 3.5625-46.062-20.079-44.882-43.702-89.774-63.781-134.66v-67.312l10.281-10.281 0.3438-0.3438h-85.031z" opacity=".5" stroke="#9fabb9" stroke-width="2.5" style="fill: rgb(215, 233, 252);"></path></g><g id="__id8_sh0ej2ren"><path d="m236.41 249.17c-14.787 26.369 1.1534-0.94842-14.375 29.062-6.6401 12.833-6.6165 28.854 3.3438 41.688 6.6402 9.6248 18.244 12.844 29.875 12.844h119.5c11.631 0 23.235-3.2189 29.875-12.844 9.9602-12.833 9.9839-28.854 3.3438-41.688-15.9-34.344-0.052673 1.2837-16.688-33.062l-154.88 4z" stroke="#565e63" stroke-width=".625" style="fill: rgb(255, 193, 7);"></path></g></g><g id="__id9_sh0ej2ren"><path d="m337.94 75.159v68.75c22.554 47.696 45.217 95.36 67.704 143.08 6.2912 14.895-1.5559 32.256-15.165 39.888-12.133 8.1439-27.078 4.9945-40.742 5.5569h-29.004c17.309-2.2285 34.971-2.6489 52.048-6.0916 11.216-3.5013 24.842-9.7419 25.527-23.29 0.70517-14.462-8.3663-26.699-13.192-39.769-17.392-39.79-34.784-79.58-52.176-119.37v-68.75l9.0374-9.0853h5.0319l-9.0693 9.0853z" style="fill: rgb(255, 255, 255);"></path></g><g id="__id10_sh0ej2ren"><path d="m292.61 75.159v68.75c-22.554 47.696-49.689 91.036-72.176 138.75-6.2912 14.895-1.25 35 11.25 43.75 12.5 6.25 8.75 5 22.878 6.6384 9.668 0 45.586-0.61865 55.254-0.61865-17.309-2.2285-34.971-2.6489-52.048-6.0916-11.216-3.5013-24.842-9.7419-25.527-23.29-0.70514-14.462 8.3663-26.699 13.192-39.769 17.392-39.79 34.784-79.58 52.176-119.37v-68.75l-9.0374-9.0853h-5.0319l9.0693 9.0853z" fill-opacity=".176" style="fill: inherit;"></path></g></g></svg>