<svg xmlns="http://www.w3.org/2000/svg" xmlns:xlink="http://www.w3.org/1999/xlink" preserveAspectRatio="xMidYMid meet" version="1.0" viewBox="-7.1 -17.0 511.0 521.0" zoomAndPan="magnify" style="fill: rgb(0, 0, 0);" original_string_length="3094" width="511px" height="521px"><g id="__id24_sh0ej2ren"><path d="M444.73,248.35c59.18-34.7,54.16-99.48,49.11-126.21C477.26,34.54,404.86,3.24,347.9,3.05 c-0.19,0-0.37,0-0.56,0c-43.3,0-80.34,16.98-100.54,43.92C230.03,26.62,182.48-16.95,96.47,7C51.48,19.53,19.44,50.5,6.25,94.21 c-13.33,44.2-4.82,95.67,20.7,125.17c8.62,9.96,19.26,18.64,30.9,25.99c-19.44,15.23-34.7,36.87-44.18,63.46 C-6.56,365.59-2.52,416.4,25.03,451.89c27.61,35.57,75.44,52.19,134.69,46.71c34.19-3.14,63.83-22.08,84.53-44.85 c12.89,16.07,35.38,32.36,74.57,41.4c14.05,3.24,27.7,4.85,40.79,4.85c38.1,0,71.51-13.57,96.53-39.76 c33.77-35.35,46.14-88.14,32.28-137.75C479.21,289.51,462.79,265.23,444.73,248.35z M247.34,83.08c0.37-1.89,0.83-3.76,1.36-5.6 c9.05,13.43,19.92,29.87,18.56,42.29c-0.64,5.84-3.9,7.72-6.53,8.27c-3.9,0.82-9.33-0.82-12.54-6.39 C241.91,110.78,245.71,91.37,247.34,83.08z M246.13,425.77c-0.93-2.51-1.62-4.87-2.12-7.02c-4.53-19.34,1.81-35.29,7.52-39.98 c0.93-0.76,1.69-1.14,2.28-1.14c0.17,0,0.33,0.03,0.47,0.1c6.24,2.84,5.66,12.2,4.76,17.52 C257.49,404.47,252.99,415.13,246.13,425.77z M444.79,449.39c-29.64,31.03-73.12,41.84-122.44,30.46 c-37.43-8.64-57.33-24.12-67.87-38.62c10.79-14.76,17.82-30.17,20.05-43.37c2.81-16.63-2.2-29.18-13.75-34.44 c-6.26-2.85-13.26-1.68-19.2,3.2c-10.8,8.86-18.68,30.84-12.85,55.7c1.2,5.13,3.23,11.26,6.64,17.82 c-18.4,21.4-45.79,39.94-77.08,42.82c-53.72,4.94-96.64-9.52-120.85-40.71c-24.15-31.11-27.34-76.62-8.98-128.16 c10.84-30.42,27.55-48.98,44.23-60.3c33.91,17.27,72.13,24.37,92.89,20.66c13.27-2.38,18.2-8.63,20.01-13.44 c2.93-7.82,1.41-15.88-4.28-22.71c-12.32-14.79-41.72-21.44-71.47-16.14c-13.49,2.4-26.13,7-37.66,13.57 c-12.75-7.35-24.41-16.27-33.36-26.62C16.99,183.86,9.61,137.45,21.28,98.75c11.58-38.38,39.78-65.59,79.39-76.62 C186.06-1.66,228.33,47.7,238.1,61.33c-2.8,5.92-4.89,12.18-6.17,18.73c-3.25,16.56-5.47,35.38,2.67,49.46 c6.19,10.71,17.99,16.31,29.38,13.9c10.42-2.19,17.66-10.6,18.9-21.93c2.02-18.42-11.17-37.98-21.77-53.69 c-1.67-2.47-3.28-4.86-4.73-7.11c16.28-25.53,50.39-41.93,90.98-41.93c0.17,0,0.34,0,0.5,0c50.98,0.17,115.76,28.12,130.56,106.31 c13.13,69.41-22.97,99.96-45.65,112c-0.34,0.18-0.69,0.36-1.03,0.54c-17.04-12.38-34.35-18.76-47.6-20.15 c-15.45-1.63-27.27,3.07-32.39,12.87c-4.66,8.91-3.58,17.76,2.96,24.26c13.17,13.1,45.56,13.22,74.72,1.34 c17.84,15.17,34.81,38.31,43.89,70.8C485.68,371.02,474.76,418.03,444.79,449.39z M89.59,244.54c8.56-3.7,16.53-5.77,23-6.92 c26.01-4.63,49.24,1.82,56.65,10.73c2.64,3.17,2.26,5.49,1.64,7.16c-0.23,0.61-2.12,2.43-8.07,3.49 C146.23,261.98,117.13,256.73,89.59,244.54z M413.97,244.77c-22.23,6.69-42.25,4.6-48.21-1.32c-0.83-0.83-2.09-2.08-0.12-5.85 c1.59-3.04,6.27-4.75,12.63-4.75c1.33,0,2.74,0.07,4.2,0.23C391.17,233.98,402.32,237.75,413.97,244.77z" style="fill: rgb(0, 48, 135);"></path></g></svg>