<svg xmlns="http://www.w3.org/2000/svg" xmlns:xlink="http://www.w3.org/1999/xlink" preserveAspectRatio="xMidYMid meet" version="1.0" viewBox="93.4 149.1 313.8 168.4" zoomAndPan="magnify" style="fill: rgb(0, 0, 0);" original_string_length="20522" width="314px" height="168px"><g id="__id26_sh0ej2ren" style="fill: rgb(0, 48, 135);"><path d="M401.99,316.87c0.23-1.82,0.47-3.47,0.64-5.12c0.23-2.26,0.5-4.52,0.6-6.79c0.1-2.27,0.1-4.55-0.01-6.82 c-0.16-3.14-0.31-6.3-0.73-9.41c-1.13-8.38-3.82-16.29-8.32-23.44c-2.17-3.45-4.94-6.54-7.59-9.66c-1.43-1.69-3.17-3.13-4.81-4.64 c-2.74-2.52-5.78-4.62-9.11-6.3c-2.06-1.04-4.09-2.17-6.22-3.04c-2.24-0.91-4.56-1.74-6.91-2.27c-3.81-0.85-7.65-1.72-11.52-2.05 c-8-0.69-15.94,0.06-23.85,1.47c-5.06,0.9-10.2,1.45-15.32,1.92c-3.22,0.29-6.5,0.04-9.54-1.22c-4.93-2.04-7.61-5.88-8.34-11.12 c-0.97-6.94-0.47-13.88-0.13-20.83c0.36-7.26,1.1-14.52,0.13-21.8c-1.13-8.47-4.85-15.28-12.31-19.83 c-4.64-2.83-9.69-4.68-14.81-6.39c-2.99-1-5.99-1.98-9.03-2.8c-2.89-0.78-5.81-1.45-8.76-1.95c-3.61-0.62-7.25-1.19-10.9-1.47 c-3.62-0.28-7.26-0.1-10.89-0.25c-5.11-0.21-10.08,0.85-15.11,1.46c-6.5,0.79-12.58,2.99-18.57,5.36c-3.9,1.55-7.62,3.7-11.17,5.97 c-5.05,3.21-9.68,7-13.8,11.4c-4.64,4.95-8.69,10.34-11.9,16.29c-4.89,9.02-7.87,18.7-8.94,28.92c-0.68,6.54-0.74,13.1,0,19.64 c0.58,5.04,1.25,10.07,1.86,15.1c0.43,3.52,1,7.04,0.54,10.62c-0.46,3.56-2.34,6.1-5.75,7.04c-3.32,0.92-6.78,1.39-10.19,2 c-4.12,0.73-8.3,1.21-12.37,2.14c-3.83,0.88-7.21,2.79-10.28,5.35c-2.44,2.03-4.29,4.48-5.66,7.21c-1.11,2.22-1.68,4.73-2.42,7.13 c-1.77,5.71-1.19,11.52-1.48,17.3c-0.04,0.88-0.3,1.21-1.2,1.16c-1.08-0.07-2.16-0.05-3.24,0c-0.77,0.03-1.09-0.23-1.08-1.02 c0.04-5-0.1-10.01,0.13-15c0.12-2.5,0.9-4.97,1.39-7.45c0.28-1.39,0.5-2.8,0.89-4.16c0.3-1.05,0.76-2.05,1.22-3.04 c0.64-1.35,1.27-2.72,2.05-3.99c2.2-3.57,5.1-6.41,8.72-8.61c4.15-2.53,8.77-3.5,13.37-4.6c3.1-0.74,6.28-1.14,9.39-1.86 c4.95-1.13,7.68-4.45,8.16-9.38c0.39-4.04,0.38-8.13,0.43-12.21c0.07-6.5-0.35-13,0.35-19.51c1.06-9.83,3.46-19.28,7.44-28.31 c2.11-4.79,4.64-9.39,7.85-13.55c2.8-3.63,5.6-7.29,8.76-10.59c2.71-2.84,5.83-5.33,8.95-7.72c2.78-2.13,5.71-4.1,8.76-5.81 c3.05-1.71,6.3-3.07,9.52-4.48c10.01-4.37,20.67-5.75,31.42-6.5c3.88-0.27,7.81,0.1,11.71,0.3c2.83,0.14,5.66,0.36,8.46,0.77 c3.19,0.46,6.37,1.06,9.51,1.8c3.65,0.86,7.28,1.82,10.85,2.95c6.82,2.15,13.56,4.58,19.77,8.17c6.67,3.86,10.75,9.73,12.56,17.21 c1.45,5.98,1.27,12.05,1.15,18.13c-0.13,6.11-0.11,12.21-0.15,18.32c-0.02,2.89,0.29,5.73,1.25,8.49c0.89,2.57,2.66,4.35,4.91,5.65 c4.15,2.4,8.76,2.52,13.35,2.27c6.02-0.32,12.03-0.99,18.05-1.24c6.98-0.29,13.94-0.03,20.85,1.36c4.53,0.91,8.94,2.12,13.15,3.94 c3.2,1.39,6.29,3.1,9.26,4.94c2.73,1.69,5.4,3.56,7.82,5.66c2.28,1.97,4.17,4.39,6.29,6.56c2.85,2.92,4.69,6.54,6.92,9.89 c3,4.51,4.85,9.47,6.25,14.59c1.08,3.95,1.85,8.04,2.28,12.12c0.6,5.64,0.7,11.32,0.19,16.99c-0.24,2.66-0.65,5.31-1.03,7.95 c-0.04,0.26-0.4,0.65-0.63,0.66C404.08,316.91,403.09,316.87,401.99,316.87z" style="fill: inherit;"></path><path d="M393.92,316.87c0.25-1.75,0.47-3.33,0.69-4.9c0.87-6.25,0.93-12.52,0.14-18.77 c-0.36-2.84-1.03-5.66-1.73-8.44c-1.41-5.59-3.73-10.81-6.98-15.57c-3.45-5.05-7.63-9.35-12.71-12.84 c-5.45-3.75-11.39-6.3-17.82-7.58c-5.81-1.16-11.73-1.67-17.63-0.62c-5.19,0.92-10.35,1.97-15.51,3.03 c-5.47,1.13-10.88,2.6-16.4,3.43c-5.34,0.81-10.57,0.05-15.02-3.41c-3.35-2.6-5.5-6.05-6.78-10.1c-1.21-3.83-1.57-7.78-1.57-11.73 c0.01-7.31,0.22-14.63,0.41-21.94c0.15-5.56,0.5-11.11-0.24-16.65c-1.04-7.73-3.98-14.47-10.68-18.91 c-2.77-1.83-5.89-3.22-9.01-4.41c-5.79-2.2-11.72-4.07-17.86-5c-4.61-0.7-9.27-1.3-13.92-1.51c-4.53-0.21-9.09,0.02-13.63,0.23 c-6.03,0.29-11.88,1.8-17.57,3.6c-5.62,1.77-11.08,4.15-15.99,7.54c-2.3,1.58-4.69,3.08-6.77,4.92c-2.89,2.55-5.64,5.29-8.27,8.13 c-3.44,3.71-6.23,7.91-8.49,12.43c-3.55,7.09-6.01,14.51-6.89,22.45c-1.19,10.73,0.15,21.16,3.57,31.32 c2.02,6.02,4.39,11.91,6.5,17.9c1.2,3.39,2.3,6.82,2.14,10.51c-0.13,3.13-2.74,6.54-5.63,7.71c-3.84,1.55-7.9,1.94-11.91,2.62 c-4.6,0.78-9.26,1.28-13.84,2.15c-5.03,0.96-9.96,2.37-13.95,5.83c-1.98,1.71-3.72,3.6-5.07,5.96c-2.03,3.55-2.45,7.46-3.3,11.29 c-0.27,1.2-0.65,1.74-1.93,1.59c-0.91-0.11-1.84-0.06-2.76-0.01c-0.78,0.04-1.14-0.27-1.03-1.04c0.56-4,0.71-8.11,1.79-11.96 c1.71-6.09,5.45-11.01,11.12-13.93c3.03-1.56,6.52-2.34,9.88-3.15c3.17-0.76,6.44-1.13,9.67-1.61c2.29-0.34,4.59-0.54,6.88-0.88 c3.49-0.51,6.96-1.15,9.73-3.58c1.3-1.14,1.93-2.66,2.21-4.37c0.52-3.05-0.09-5.95-0.89-8.86c-1.83-6.62-3.74-13.22-5.39-19.89 c-2.2-8.9-2.59-17.94-1.51-27.04c1.16-9.83,4.26-19.05,9.35-27.51c2.19-3.64,4.8-7.09,7.61-10.28c2.92-3.31,6.14-6.4,9.53-9.23 c2.62-2.18,5.65-3.89,8.59-5.66c9.02-5.45,19.02-8.14,29.31-9.64c6.79-0.99,13.66-1.1,20.55-0.48c6.91,0.62,13.74,1.7,20.36,3.67 c5.5,1.64,11.01,3.47,16.2,5.9c8.97,4.19,13.43,11.75,14.62,21.47c0.67,5.52,0.32,11.02,0.08,16.53 c-0.4,9.26-1.26,18.54-0.08,27.79c0.63,4.9,2.45,9.4,6.71,12.41c2.84,2.01,6.05,2.97,9.54,3.08c5.48,0.17,10.81-0.78,16.13-1.96 c7.65-1.7,15.32-3.2,23.2-3.43c5.84-0.17,11.58,0.32,17.19,1.89c5.01,1.4,9.75,3.45,14.19,6.24c5.52,3.48,10,7.93,13.94,13.11 c2.97,3.9,5.44,8.04,7.04,12.61c1.54,4.39,2.94,8.85,3.62,13.53c0.88,6.06,0.85,12.1,0.34,18.17c-0.18,2.11-0.55,4.2-0.74,6.31 c-0.12,1.26-0.68,1.76-1.92,1.56C394.95,316.82,394.55,316.87,393.92,316.87z" style="fill: inherit;"></path><path d="M386.55,316.75c0.29-2.25,0.65-4.41,0.83-6.59c0.38-4.5,0.43-8.99-0.27-13.5 c-0.64-4.08-1.74-7.99-3.08-11.9c-1.58-4.65-4.04-8.73-7.15-12.36c-2.31-2.7-5.06-5.13-7.97-7.17c-4.8-3.35-10.21-5.29-16.08-6.23 c-7.16-1.14-14.1-0.36-21,1.31c-5.28,1.28-10.47,2.9-15.73,4.24c-4.66,1.19-9.37,2.02-14.22,1.59 c-10.35-0.92-17.41-6.34-21.56-15.73c-2.14-4.83-3.05-9.97-3.23-15.17c-0.34-9.99-0.37-19.99-0.56-29.98 c-0.1-5.13-0.52-10.22-2.04-15.16c-2.21-7.21-6.79-12.29-13.65-15.34c-5.25-2.34-10.77-3.81-16.43-4.7 c-4.49-0.71-9-1.33-13.53-1.62c-4.82-0.31-9.65,0-14.45,0.69c-6.6,0.94-12.93,2.71-19.1,5.26c-5.2,2.14-9.85,5.13-14.23,8.51 c-3.88,2.99-7.32,6.57-10.18,10.58c-3,4.2-5.47,8.67-7.22,13.58c-2.03,5.7-3.24,11.52-3.31,17.56c-0.07,6.65,0.98,13.13,3.2,19.42 c2.44,6.93,5.75,13.42,9.52,19.72c2.37,3.97,4.61,8.04,6.62,12.21c1.81,3.75,2.46,7.78,1.17,11.89c-0.88,2.8-2.71,4.94-5.01,6.71 c-3.18,2.45-6.94,3.6-10.73,4.58c-6.87,1.79-13.81,3.34-20.67,5.18c-2.97,0.8-5.9,1.9-8.68,3.21c-1.74,0.82-3.07,2.45-4.75,3.44 c-2.2,1.3-2.94,3.58-4.25,5.49c-0.2,0.29-0.59,0.61-0.91,0.62c-2.07,0.05-4.14,0.03-6.4,0.03c0.13-0.49,0.18-0.87,0.32-1.21 c0.75-1.81,1.42-3.67,2.34-5.39c0.58-1.09,1.46-2.07,2.37-2.92c1.25-1.18,2.59-2.3,4.02-3.26c2.7-1.8,5.71-2.99,8.85-3.7 c7.08-1.59,14.22-2.97,21.31-4.54c3.46-0.76,6.96-1.52,10.07-3.37c3.48-2.06,5.72-5.02,6-9.11c0.19-2.77-0.28-5.54-1.44-8.08 c-1.98-4.32-4.04-8.6-6.19-12.84c-3.48-6.85-6.84-13.73-8.59-21.29c-1.99-8.56-2.42-17.17-0.72-25.82 c1.19-6.07,3.2-11.86,6.28-17.25c3.03-5.3,6.7-10.04,11.12-14.29c7.6-7.29,16.63-11.95,26.52-15.12 c6.08-1.95,12.35-2.81,18.71-3.23c6.45-0.43,12.86-0.1,19.22,0.91c7.55,1.2,14.98,3.01,21.98,6.13 c8.24,3.68,12.82,10.28,14.44,19.05c1.2,6.5,1.02,13.06,0.88,19.61c-0.2,9.87-0.69,19.77,1.09,29.56 c1.28,7.05,4.35,13.14,10.51,17.22c3.94,2.61,8.36,3.67,13.08,3.6c4.4-0.06,8.64-1,12.85-2.11c4.02-1.06,8.01-2.23,12.04-3.24 c7.01-1.76,14.11-2.8,21.36-2.14c4.17,0.38,8.25,1.26,12.19,2.81c4.19,1.65,8.09,3.75,11.38,6.83c2,1.87,3.78,3.97,5.78,5.84 c2.52,2.34,4.29,5.23,5.61,8.28c1.68,3.86,2.97,7.9,4.17,11.94c0.73,2.47,1.16,5.07,1.37,7.64c0.25,3.09,0.23,6.22,0.13,9.33 c-0.07,2.43-0.38,4.86-0.69,7.27C389.46,317.27,389.63,317.01,386.55,316.75z" style="fill: inherit;"></path><path d="M139.21,316.73c0.82-0.7,1.61-1.45,2.47-2.09c0.98-0.73,1.98-1.44,3.06-2.01c2.03-1.07,4.05-2.19,6.19-2.99 c3.06-1.15,6.22-2.03,9.34-3.03c5.25-1.67,10.52-3.29,15.76-5.02c4.86-1.61,9.03-4.27,12.04-8.5c2.68-3.77,3.33-7.97,2.35-12.45 c-0.94-4.33-3.03-8.13-5.43-11.79c-3.03-4.61-6.11-9.18-9.06-13.84c-4.46-7.05-7.48-14.71-8.61-22.97 c-1.32-9.63-0.14-18.95,4.07-27.84c2.32-4.89,5.22-9.33,8.9-13.26c6.45-6.87,14.32-11.63,23.08-14.87 c5.7-2.11,11.64-3.36,17.75-3.81c6.25-0.47,12.47-0.39,18.65,0.53c6.57,0.97,13.09,2.24,19.15,5.13c5.98,2.85,9.97,7.5,12.22,13.67 c1.53,4.21,2.24,8.6,2.38,13.05c0.25,7.51,0.33,15.03,0.59,22.55c0.22,6.4,0.66,12.79,2.13,19.05c1.82,7.73,5.37,14.45,11.97,19.23 c4.42,3.2,9.4,4.83,14.84,5.23c6.77,0.5,13.25-1.01,19.76-2.54c5.71-1.34,11.45-2.61,17.24-3.56c5.36-0.88,10.74-0.55,16.02,0.97 c3.55,1.02,6.9,2.45,9.99,4.46c1.17,0.76,2.33,1.57,3.32,2.53c3.33,3.24,6.59,6.59,8.62,10.82c2.16,4.5,3.99,9.13,4.71,14.16 c0.85,5.94,0.82,11.86-0.09,17.78c-0.27,1.76-0.3,1.75-2.72,1.41c0.09-1.03,0.24-2.08,0.27-3.13c0.08-4.03,0.39-8.07,0.1-12.08 c-0.27-3.72-1.23-7.37-2.54-10.93c-1.41-3.8-3.25-7.33-5.87-10.37c-1.77-2.06-3.9-3.84-6-5.59c-4.12-3.45-9.04-5.21-14.24-6.04 c-4.26-0.68-8.61-0.78-12.89,0.04c-7.33,1.41-14.63,3.04-21.97,4.41c-6.82,1.28-13.67,1.56-20.41-0.55 c-9.37-2.93-15.57-9.28-19.37-18.17c-2.27-5.32-3.33-10.96-3.74-16.67c-0.59-8.37-0.78-16.77-1.35-25.15 c-0.35-5.09-0.71-10.24-1.73-15.23c-2.2-10.69-9.09-17.12-19.52-19.87c-8.24-2.17-16.6-3.41-25.14-3.03 c-6.52,0.3-12.91,1.29-19.18,3.28c-4.32,1.37-8.36,3.29-12.19,5.54c-4.07,2.4-7.78,5.39-11.1,8.87c-3.83,4.02-6.8,8.56-9.06,13.57 c-1.94,4.31-3.17,8.83-3.62,13.6c-0.37,3.98-0.37,7.88,0.27,11.82c0.96,5.86,2.85,11.39,5.61,16.63 c3.26,6.17,7.28,11.82,11.35,17.47c2.21,3.07,4.25,6.32,5.93,9.7c2.53,5.11,3.42,10.54,0.99,15.99c-2.1,4.71-5.52,8.37-10.18,10.59 c-4.18,1.99-8.48,3.73-12.8,5.39c-4.02,1.55-8.16,2.79-12.2,4.29c-2.56,0.95-5.07,2.08-7.55,3.24c-1.54,0.72-2.97,1.66-4.45,2.49 c-0.17,0.1-0.36,0.21-0.55,0.21c-2.46,0.01-4.92,0.01-7.38,0.01C139.34,316.97,139.28,316.85,139.21,316.73z" style="fill: inherit;"></path><path d="M159.03,316.72c3.48-1.5,6.97-3,10.45-4.51c5.85-2.55,11.8-4.9,17.52-7.72c4.48-2.2,8.28-5.4,11.04-9.7 c3.31-5.14,3.89-10.62,2.24-16.43c-1.43-5.05-4.13-9.41-7.2-13.58c-3.86-5.24-7.95-10.34-11.46-15.81 c-5.98-9.32-8.72-19.59-7.4-30.73c0.48-4.06,1.62-7.95,3.3-11.7c1.95-4.34,4.57-8.17,7.72-11.72c5.1-5.74,11.35-9.87,18.29-12.85 c6.78-2.92,13.96-4.42,21.39-4.73c8.95-0.38,17.71,0.57,26.26,3.21c7.99,2.47,13.35,7.75,16.1,15.67c1.48,4.27,2.13,8.7,2.43,13.17 c0.49,7.3,0.73,14.61,1.26,21.9c0.56,7.73,1.36,15.45,4.07,22.8c3.81,10.35,10.65,17.74,21.29,21.21 c5.83,1.9,11.87,2.21,17.91,1.36c6.44-0.91,12.86-2.05,19.28-3.11c5.62-0.93,11.27-1.4,16.93-0.52c3.94,0.61,7.7,1.78,11.12,4.02 c2.42,1.59,4.52,3.44,6.55,5.49c1.95,1.97,3.6,4.12,4.73,6.57c1.76,3.83,3.29,7.74,3.95,11.99c0.74,4.74,0.69,9.43,0.22,14.16 c-0.17,1.75-0.29,1.84-2.87,1.64c0-0.4-0.04-0.83,0.01-1.24c0.49-4.14,0.53-8.26-0.15-12.4c-1-6.05-2.96-11.71-6.92-16.45 c-1.97-2.36-4.3-4.41-6.99-6.04c-6.92-4.19-14.48-4.86-22.26-4.13c-4.73,0.45-9.42,1.24-14.13,1.88c-7.3,1-14.59,1.88-21.95,0.61 c-11.07-1.9-19.35-7.75-24.95-17.45c-3.1-5.37-4.66-11.25-5.71-17.31c-1.48-8.48-1.9-17.06-2.45-25.63 c-0.42-6.54-0.84-13.07-2.76-19.42c-2.69-8.93-8.48-14.65-17.4-17.24c-4.89-1.42-9.91-2.07-14.98-2.44 c-5.49-0.4-10.95-0.13-16.33,0.88c-3.08,0.58-6.09,1.6-9.11,2.47c-4.43,1.27-8.41,3.58-12.14,6.13c-3.39,2.31-6.65,4.96-9.1,8.4 c-0.97,1.36-2.09,2.61-3.03,4c-3.16,4.65-5.06,9.77-6,15.34c-1.18,6.94-0.31,13.61,2.04,20.15c1.63,4.54,3.92,8.76,6.75,12.66 c3.16,4.36,6.51,8.58,9.73,12.9c3.99,5.36,7.4,11.01,8.66,17.72c1.27,6.77-0.26,12.76-4.82,17.95c-3.7,4.21-8.22,7.33-13.22,9.77 c-4.48,2.18-9.03,4.21-13.54,6.33c-1.76,0.83-3.49,1.74-5.23,2.6c-0.21,0.1-0.44,0.24-0.66,0.24c-2.78,0.02-5.57,0.01-8.35,0.01 C159.09,316.97,159.06,316.85,159.03,316.72z" style="fill: inherit;"></path><path d="M177.82,317.11c5.3-2.96,10.52-5.73,15.58-8.76c4.95-2.97,9.55-6.43,12.97-11.22 c2.88-4.01,3.99-8.54,3.58-13.38c-0.75-8.9-4.7-16.52-9.96-23.54c-3.93-5.24-8.23-10.24-11.77-15.73 c-6.24-9.67-8.62-20.24-5.42-31.61c1.33-4.73,3.62-8.97,6.72-12.84c3.97-4.97,8.87-8.77,14.41-11.7c6.61-3.5,13.75-5.31,21.23-5.81 c6.59-0.44,13.09,0.05,19.53,1.47c10.08,2.23,16.62,8.32,19.27,18.26c1.2,4.49,1.86,9.17,2.35,13.8 c1.11,10.53,1.48,21.13,3.65,31.54c1.66,7.97,4.46,15.43,9.81,21.73c6.77,7.98,15.55,12.02,25.83,13.16 c6.97,0.77,13.89-0.02,20.81-0.65c5.69-0.52,11.37-1.11,17.11-0.65c4.61,0.36,9,1.56,13.01,3.76c2.09,1.14,3.94,2.85,5.62,4.57 c1.63,1.67,3.16,3.54,4.26,5.58c2.24,4.13,3.73,8.56,3.85,13.33c0.06,2.31-0.08,4.63,0,6.93c0.04,1.3-0.45,1.74-1.67,1.54 c-0.27-0.04-0.55-0.03-0.89-0.04c0-1.27-0.01-2.5,0-3.72c0.03-4.02-0.59-7.91-1.89-11.74c-0.92-2.71-2.23-5.16-3.98-7.32 c-1.69-2.09-3.72-3.88-6.06-5.34c-3.23-2.02-6.72-3.34-10.42-4.01c-5.21-0.95-10.49-0.85-15.77-0.52 c-7.06,0.44-14.1,1.1-21.19,0.65c-17.79-1.14-31.22-11.23-37.1-28.07c-2.11-6.03-3.3-12.27-4.06-18.58 c-1.05-8.69-1.85-17.4-2.94-26.09c-0.38-3.04-1.1-6.07-2-9c-3.05-9.98-9.9-15.77-20.09-17.67c-7.41-1.38-14.85-1.59-22.28-0.19 c-4.12,0.77-8.22,1.75-11.96,3.74c-3.06,1.63-6.25,3.14-8.96,5.25c-2.77,2.16-5.17,4.86-7.46,7.55c-3.42,4.03-5.39,8.86-6.41,14 c-1.65,8.26,0,16.07,3.89,23.42c3.04,5.75,7.04,10.85,11.11,15.9c4.61,5.74,8.41,11.98,10.84,18.97 c1.78,5.12,2.77,10.33,1.93,15.79c-0.6,3.9-2.39,7.18-4.96,10.07c-3.81,4.29-8.49,7.51-13.33,10.5c-3.53,2.18-7.13,4.25-10.7,6.36 c-0.27,0.16-0.59,0.3-0.88,0.31C181.33,317.12,179.62,317.11,177.82,317.11z" style="fill: inherit;"></path><path d="M190.4,316.85c1.21-0.81,2.42-1.63,3.63-2.44c5.4-3.62,10.96-7,15.77-11.42c6.15-5.65,8.04-12.65,6.66-20.7 c-1.64-9.6-5.6-18.23-11.17-26.14c-3.08-4.38-6.48-8.53-9.57-12.89c-3-4.24-5.28-8.88-6.48-13.95c-1.4-5.9-1.28-11.78,0.82-17.55 c1.18-3.24,2.88-6.16,4.97-8.92c3.44-4.53,7.8-7.94,12.71-10.55c6.27-3.33,13.05-5.06,20.18-5.42c5.22-0.27,10.37,0.02,15.45,1.26 c8.25,2.02,13.73,7.14,16.78,15c1.82,4.69,2.68,9.6,3.31,14.56c1.32,10.4,2.04,20.88,4.32,31.14c1.9,8.56,4.92,16.6,10.69,23.38 c5.93,6.95,13.39,11.32,22.27,13.45c7.56,1.81,15.21,1.73,22.88,1.5c6.99-0.22,13.99-0.53,20.88,1.08 c4.23,0.99,8.12,2.67,11.4,5.66c2.35,2.14,4.51,4.44,5.8,7.34c1.65,3.72,2.87,7.59,2.86,11.74c0,0.99,0.07,1.98,0.13,2.97 c0.04,0.65-0.2,0.92-0.88,0.95c-1.98,0.09-1.9,0.02-2.04-2.01c-0.15-2.21-0.54-4.42-1.02-6.58c-0.34-1.54-0.85-3.08-1.55-4.49 c-3.3-6.69-8.75-10.68-15.89-12.63c-5.7-1.55-11.5-1.66-17.33-1.73c-5.07-0.07-10.16-0.05-15.21-0.41 c-12.8-0.91-24.03-5.33-32.61-15.29c-4.42-5.13-7.46-11.03-9.45-17.47c-2.33-7.56-3.62-15.34-4.64-23.17 c-1.02-7.79-1.6-15.65-3.59-23.29c-1.22-4.67-2.97-9.11-6.2-12.83c-3.94-4.55-9.07-6.85-14.89-7.71 c-6.46-0.96-12.87-0.69-19.25,0.85c-5.33,1.29-10.23,3.41-14.8,6.48c-2.7,1.81-5,4.01-7.01,6.44c-3.67,4.42-6,9.5-6.61,15.34 c-0.84,8.06,1.69,15.16,5.98,21.73c3.03,4.65,6.41,9.07,9.49,13.69c5.89,8.84,10.2,18.37,12.01,28.92 c0.7,4.09,0.78,8.18-0.49,12.23c-1.14,3.63-3.33,6.56-6.13,9c-2.46,2.14-5.1,4.08-7.75,5.99c-3.2,2.3-6.49,4.49-9.77,6.68 c-0.46,0.31-1.09,0.44-1.65,0.48c-0.95,0.08-1.91,0.02-2.87,0.02C190.49,317.03,190.44,316.94,190.4,316.85z" style="fill: inherit;"></path><path d="M200.22,316.81c1.47-1.06,2.96-2.11,4.42-3.17c3.67-2.68,7.45-5.23,10.99-8.07 c6.47-5.2,8.27-12.16,7.07-20.11c-1.72-11.4-5.94-21.9-11.81-31.73c-3.01-5.04-6.51-9.78-9.65-14.74 c-3.89-6.15-6.31-12.78-5.54-20.2c0.5-4.81,2.2-9.17,5.18-13.07c2.95-3.86,6.58-6.89,10.75-9.21c5.81-3.24,12.16-4.73,18.8-5.1 c4.39-0.25,8.72,0.03,12.91,1.41c7.33,2.41,11.71,7.76,14.34,14.77c1.78,4.74,2.61,9.71,3.42,14.68c1.5,9.21,2.82,18.46,4.62,27.62 c1.56,7.92,4.43,15.42,9.2,22.06c7.27,10.12,17.24,15.95,29.31,18.43c6.96,1.43,14.04,1.59,21.11,1.94 c4.79,0.24,9.58,0.59,14.23,1.86c4.61,1.25,8.88,3.26,12.12,6.85c2.18,2.42,4.14,5.08,4.81,8.44c0.33,1.64,0.82,3.24,1.15,4.88 c0.15,0.76,0.1,1.57,0.15,2.44c-0.49,0.04-0.84,0.04-1.18,0.09c-1.24,0.21-1.5-0.45-1.63-1.55c-0.44-3.77-1.58-7.25-3.92-10.38 c-3.97-5.32-9.42-8.07-15.7-9.19c-5.14-0.91-10.36-1.4-15.57-1.87c-7.61-0.69-15.2-1.37-22.48-3.95 c-13.93-4.94-23.38-14.5-28.87-28.1c-2.73-6.77-4.29-13.86-5.54-21.02c-1.47-8.41-2.8-16.85-4.36-25.25 c-0.75-4.02-2.16-7.86-4.25-11.41c-3.58-6.08-8.87-9.57-15.84-10.64c-5.88-0.9-11.6-0.16-17.3,1.34c-4.6,1.21-8.77,3.32-12.45,6.21 c-3.19,2.51-5.85,5.56-7.66,9.35c-2.26,4.72-3.05,9.59-2.21,14.68c0.75,4.55,2.68,8.67,5.06,12.61 c4.23,6.97,8.84,13.72,12.25,21.16c3.85,8.39,7.06,16.98,8.59,26.13c0.54,3.21,0.78,6.43,0.28,9.67 c-0.73,4.67-2.93,8.57-6.61,11.47c-3.62,2.86-7.46,5.45-11.21,8.16c-0.94,0.68-1.94,1.28-2.82,2.02c-1.25,1.07-2.66,0.72-4.03,0.77 C200.31,317.01,200.26,316.91,200.22,316.81z" style="fill: inherit;"></path><path d="M208.15,316.97c2.35-1.56,4.58-3.01,6.78-4.5c3.95-2.68,7.91-5.36,10.57-9.48 c2.18-3.38,2.77-7.14,2.67-11.09c-0.13-5.28-1.4-10.34-2.86-15.36c-2.67-9.22-6.17-18.12-10.66-26.61 c-2.05-3.88-4.36-7.62-6.5-11.46c-2.28-4.08-4.47-8.21-5.32-12.89c-1.02-5.65-0.21-10.96,2.78-15.95 c2.57-4.29,6.27-7.36,10.53-9.69c6.32-3.47,13.21-4.9,20.38-4.27c8.56,0.75,14.52,5.32,18.04,13.14c2,4.46,3.17,9.16,4.07,13.92 c1.04,5.5,1.97,11.01,2.87,16.53c1.14,7.03,2.76,13.94,5.09,20.66c2.76,7.96,6.99,15.03,13.12,20.87 c6.68,6.37,14.66,10.32,23.58,12.49c6.56,1.6,13.27,2.15,19.95,2.91c4.82,0.54,9.64,1.18,14.22,2.86c3.56,1.31,6.82,3.11,9.4,6.02 c1.82,2.05,3.37,4.24,4.21,6.85c0.5,1.53,0.77,3.14,1.19,4.94c-0.91,0-1.69,0.05-2.46-0.03c-0.22-0.03-0.53-0.44-0.57-0.71 c-0.55-3.58-2.22-6.58-4.63-9.22c-4.77-5.25-11.15-7.03-17.77-8.24c-7.98-1.46-16.11-2.01-23.98-4.09 c-10.49-2.78-19.55-7.91-26.7-16.16c-5.55-6.39-9.09-13.87-11.52-21.92c-2.27-7.53-3.75-15.24-5.12-22.98 c-1.18-6.69-2.22-13.42-4.55-19.84c-1.76-4.88-4.19-9.32-8.54-12.42c-3.22-2.3-6.86-3.43-10.8-3.66 c-5.37-0.31-10.51,0.61-15.36,2.95c-2,0.96-4.11,1.86-5.81,3.24c-6.62,5.39-10.67,12.72-8.24,22.71c1.06,4.36,3.12,8.28,5.17,12.19 c5.41,10.34,10.28,20.91,13.89,32.03c1.98,6.11,3.83,12.25,4.74,18.62c0.65,4.58,0.64,9.17-1.55,13.45 c-1.65,3.23-4.2,5.67-7.11,7.73c-2.43,1.72-5.05,3.18-7.4,5.01C212.25,316.88,210.49,317.45,208.15,316.97z" style="fill: inherit;"></path><path d="M216.38,317.06c2.14-1.42,4.04-2.64,5.9-3.93c3.06-2.12,6.05-4.3,8.06-7.55c2.4-3.89,2.88-8.16,2.44-12.58 c-0.75-7.53-3.01-14.7-5.3-21.85c-3.33-10.4-7.38-20.52-12.01-30.42c-1.78-3.79-3.46-7.65-4.9-11.58 c-2.07-5.68-2.02-11.37,0.91-16.82c1.38-2.57,3.36-4.61,5.66-6.39c5.43-4.22,11.6-6.15,18.44-5.79 c7.45,0.39,12.71,4.22,16.19,10.69c2.54,4.73,3.89,9.86,4.98,15.07c1.57,7.44,2.93,14.92,4.61,22.33c1.72,7.63,4.01,15.1,7.82,22 c7.58,13.72,19.21,22.24,34.23,26.12c6.28,1.62,12.73,2.63,19.1,3.9c4.98,0.99,9.91,2.14,14.34,4.79c2.78,1.66,5.09,3.74,6.75,6.6 c0.93,1.61,1.68,3.22,2.14,5c-1.95,0.58-2.29,0.42-2.94-1.26c-1.83-4.74-5.41-7.79-9.79-10.01c-4.14-2.1-8.61-3.13-13.11-4.06 c-7.53-1.57-15.13-2.89-22.36-5.65c-16.51-6.31-27.29-18.11-33.16-34.62c-2.93-8.24-4.76-16.76-6.5-25.3 c-1.3-6.36-2.45-12.77-4.8-18.86c-1.66-4.3-3.8-8.31-7.56-11.18c-3.82-2.91-8.15-3.92-12.94-3.6c-4.66,0.31-8.89,1.8-12.58,4.45 c-5.92,4.25-9.2,10.82-7.6,19.09c1.13,5.82,3.63,11.17,5.87,16.59c6.29,15.23,11.92,30.69,15.53,46.81 c1.05,4.7,1.54,9.48,0.02,14.22c-1.07,3.35-3.14,6-5.89,8.1c-2.15,1.64-4.5,3.03-6.61,4.73 C219.86,317.21,218.34,317.16,216.38,317.06z" style="fill: inherit;"></path><path d="M226.2,317.02c2.12-1.69,4.33-3.33,6.39-5.14c4.27-3.75,5.62-8.66,5.23-14.14 c-0.51-7.27-2.62-14.19-4.83-21.06c-3.85-11.96-7.91-23.86-11.82-35.8c-1.39-4.24-2.83-8.49-3.87-12.83 c-1.04-4.29-0.95-8.63,1.09-12.73c2.11-4.23,5.63-6.79,9.91-8.51c3.62-1.46,7.33-1.62,11.03-0.59c4.64,1.29,7.87,4.42,10.21,8.52 c2.6,4.54,4.08,9.51,5.3,14.56c1.86,7.72,3.55,15.49,5.56,23.17c2.18,8.3,5.14,16.31,9.95,23.52c7.32,10.97,17.4,18.38,29.83,22.49 c6.3,2.09,12.8,3.59,19.21,5.35c5.17,1.42,10.3,2.94,14.51,6.46c1.2,1.01,2.23,2.26,3.2,3.5c0.67,0.86,1.13,1.89,1.69,2.87 c-1.83,0.45-2.21,0.42-3.13-1.12c-2.61-4.36-6.63-6.9-11.22-8.48c-5.76-1.98-11.65-3.58-17.51-5.3 c-7.73-2.27-15.14-5.21-21.82-9.82c-10.72-7.4-17.76-17.55-22.21-29.67c-3.09-8.41-5.11-17.11-7.17-25.8 c-1.48-6.24-2.91-12.5-5.8-18.28c-2.09-4.18-4.9-7.71-9.38-9.48c-3.12-1.23-6.36-1.44-9.59-0.43c-1.58,0.5-3.27,0.95-4.61,1.86 c-2.9,1.97-5.15,4.57-6.25,8.02c-1.53,4.81-0.95,9.61,0.45,14.27c3.24,10.85,6.74,21.63,10.01,32.47c2.71,9,5.37,18.03,7.81,27.11 c1.13,4.2,1.67,8.56,0.66,12.91c-0.92,3.98-3.19,7.06-6.46,9.44c-0.48,0.35-0.97,0.71-1.41,1.12 C229.72,316.79,228.13,317.54,226.2,317.02z" style="fill: inherit;"></path><path d="M233.38,316.93c0.83-0.72,1.66-1.44,2.5-2.16c3.36-2.89,5.37-6.47,5.64-10.96 c0.3-4.87-0.69-9.56-2.03-14.17c-2.85-9.81-5.91-19.56-8.78-29.37c-2.57-8.78-5.08-17.58-7.45-26.41c-0.93-3.47-1.3-7.07-0.9-10.7 c0.63-5.68,3.51-9.77,8.86-11.76c4.8-1.79,9.27-0.81,13.16,2.59c3.14,2.74,5.12,6.29,6.38,10.14c1.95,5.98,3.65,12.05,5.25,18.13 c2.32,8.82,4.62,17.64,8.4,25.98c6.83,15.07,18.01,25.64,33.33,31.69c6.3,2.49,12.84,4.35,19.26,6.5 c4.41,1.48,8.73,3.14,12.37,6.14c1.38,1.13,2.64,2.39,3.43,4.16c-1.17,0.28-1.88,0.08-2.64-0.87c-2.5-3.13-5.81-5.26-9.49-6.67 c-5.32-2.04-10.74-3.85-16.12-5.73c-8-2.79-15.62-6.3-22.35-11.54c-9.37-7.29-15.74-16.72-20.03-27.7 c-3.33-8.52-5.55-17.36-7.89-26.17c-1.5-5.63-3.04-11.26-5.8-16.45c-1.25-2.35-2.76-4.53-4.89-6.15 c-3.48-2.65-7.27-3.64-11.54-1.93c-4.71,1.89-6.84,5.63-7.53,10.36c-0.67,4.59,0.2,9.09,1.2,13.54 c3.43,15.21,8.17,30.05,12.69,44.94c1.75,5.77,3.64,11.51,4.34,17.53c0.49,4.24,0.46,8.45-2.21,12.07 c-1.27,1.72-2.8,3.28-4.41,4.69c-0.59,0.52-1.74,0.41-2.64,0.59C233.45,317.15,233.42,317.04,233.38,316.93z" style="fill: inherit;"></path></g></svg>