<svg xmlns="http://www.w3.org/2000/svg" xmlns:xlink="http://www.w3.org/1999/xlink" preserveAspectRatio="xMidYMid meet" version="1.0" viewBox="0.0 0.0 351.0 510.5" zoomAndPan="magnify" style="fill: rgb(0, 0, 0);" original_string_length="3738" width="351px" height="511px"><g id="__id16_sh0ej2ren"><path d="M328.782,167.054c1.083-0.625,1.75-1.781,1.75-3.031V70.627c0-1.25-0.667-2.406-1.75-3.031l-80.884-46.698 c-1.082-0.625-2.418-0.625-3.5,0l-80.882,46.698c-1.083,0.625-1.75,1.781-1.75,3.031v91.305L82.633,207.62 c-1.083,0.625-1.75,1.781-1.75,3.031v91.71L1.75,348.047C0.667,348.672,0,349.829,0,351.079v93.396c0,1.25,0.667,2.406,1.75,3.031 l80.883,46.698c0.542,0.312,1.146,0.469,1.75,0.469s1.208-0.156,1.75-0.469l79.133-45.688l79.133,45.688 c0.541,0.312,1.146,0.469,1.75,0.469s1.209-0.156,1.75-0.469l80.883-46.698c1.083-0.625,1.75-1.781,1.75-3.031v-93.396 c0-1.25-0.667-2.406-1.75-3.031l-79.133-45.687v-89.619L328.782,167.054z M246.148,27.971l77.384,44.677v89.355l-77.323,44.642 l-77.443-44.712V72.648L246.148,27.971z M87.883,212.672l77.323-44.642l77.444,44.713v89.284l-77.383,44.678l-77.383-44.678V212.672 z M84.383,487.131L7,442.454v-89.354l77.383-44.677l77.383,44.677v89.354L84.383,487.131z M323.532,442.454l-77.383,44.678 l-77.383-44.678v-89.354l77.383-44.677l77.383,44.677V442.454z" style="fill: rgb(35, 31, 32);"></path></g><g id="__id17_sh0ej2ren"><circle cx="246.149" cy="210.721" r="20.43" style="fill: rgb(213, 44, 38);"></circle></g><g id="__id18_sh0ej2ren"><circle cx="246.149" cy="23.93" r="20.43" style="fill: rgb(104, 138, 251);"></circle></g><g id="__id19_sh0ej2ren"><circle cx="165.266" cy="350.744" r="20.43" style="fill: rgb(42, 99, 80);"></circle></g><g id="__id20_sh0ej2ren"><circle cx="84.383" cy="486.524" r="20.43" style="fill: rgb(104, 138, 251);"></circle></g><g><g id="__id21_sh0ej2ren"><path d="M347.461,434.646c0,11.283-9.147,20.43-20.43,20.43c-11.283,0-20.43-9.147-20.43-20.43 s9.147-20.43,20.43-20.43C338.315,414.216,347.461,423.363,347.461,434.646z M84.383,190.291c-11.283,0-20.43,9.147-20.43,20.43 s9.147,20.43,20.43,20.43s20.43-9.147,20.43-20.43S95.666,190.291,84.383,190.291z" style="fill: rgb(255, 242, 0);"></path></g><g id="__id22_sh0ej2ren" style="fill: rgb(35, 31, 32);"><path d="M327.032,410.716c-13.195,0-23.93,10.734-23.93,23.93s10.734,23.93,23.93,23.93s23.93-10.734,23.93-23.93 S340.228,410.716,327.032,410.716z M327.032,451.576c-9.335,0-16.93-7.595-16.93-16.93s7.595-16.93,16.93-16.93 s16.93,7.595,16.93,16.93S336.367,451.576,327.032,451.576z" style="fill: inherit;"></path><path d="M246.148,186.791c-13.194,0-23.929,10.735-23.929,23.93s10.734,23.929,23.929,23.929 c13.195,0,23.93-10.734,23.93-23.929S259.344,186.791,246.148,186.791z M246.148,227.65c-9.335,0-16.929-7.594-16.929-16.929 s7.594-16.93,16.929-16.93s16.93,7.595,16.93,16.93S255.483,227.65,246.148,227.65z" style="fill: inherit;"></path><path d="M165.266,326.815c-13.195,0-23.93,10.734-23.93,23.93s10.735,23.93,23.93,23.93 s23.929-10.734,23.929-23.93S178.461,326.815,165.266,326.815z M165.266,367.674c-9.335,0-16.93-7.595-16.93-16.93 s7.595-16.93,16.93-16.93s16.929,7.595,16.929,16.93S174.601,367.674,165.266,367.674z" style="fill: inherit;"></path><path d="M246.148,0c-13.194,0-23.929,10.734-23.929,23.929s10.734,23.93,23.929,23.93 c13.195,0,23.93-10.735,23.93-23.93S259.344,0,246.148,0z M246.148,40.859c-9.335,0-16.929-7.595-16.929-16.93 S236.813,7,246.148,7s16.93,7.594,16.93,16.929S255.483,40.859,246.148,40.859z M84.383,462.594 c-13.195,0-23.929,10.734-23.929,23.93s10.734,23.93,23.929,23.93s23.93-10.734,23.93-23.93S97.578,462.594,84.383,462.594z M84.383,503.454c-9.335,0-16.929-7.595-16.929-16.93s7.594-16.93,16.929-16.93s16.93,7.595,16.93,16.93 S93.718,503.454,84.383,503.454z" style="fill: inherit;"></path><path d="M84.383,186.791c-13.195,0-23.929,10.735-23.929,23.93s10.734,23.93,23.929,23.93 s23.93-10.735,23.93-23.93S97.578,186.791,84.383,186.791z M84.383,227.651c-9.335,0-16.929-7.595-16.929-16.93 s7.594-16.93,16.929-16.93s16.93,7.595,16.93,16.93S93.718,227.651,84.383,227.651z" style="fill: inherit;"></path></g></g></svg>