<svg xmlns="http://www.w3.org/2000/svg" xmlns:xlink="http://www.w3.org/1999/xlink" preserveAspectRatio="xMidYMid meet" version="1.0" viewBox="0.0 -3.2 500.0 234.7" zoomAndPan="magnify" style="fill: rgb(0, 0, 0);" original_string_length="1773" width="500px" height="235px"><g id="__id27_sh0ej2ren"><path d="M50.3,76.6c25.7-1.9,52.6-12.7,81-24.1c37.2-14.9,75.6-30.3,116.4-27.1c23.9,1.9,46.8,10.5,66.1,24.7 c20.4,14.8,38.6,35.9,55.4,64.4c14.6,24.7,29.8,42.9,45.2,54c11.2,8.1,22.1,12.3,33.4,12.8c19,0.8,37.7-9.2,52.1-19.8v-32.7 c-2.6,2.5-5.4,5.1-8.5,7.6c-16.1,13.4-31.2,20.5-42.7,20c-16.9-0.7-38-20.6-58.1-54.5c-18.6-31.5-39-55-62.3-71.9 c-23.7-17.2-50.2-27.1-78.8-29.4C203.1-3.2,160,14.1,122,29.3C95.4,40,70.3,50,48.4,51.7c-18.8,1.4-32-1.5-39.2-8.7 c-4-4-7-9.5-9.2-15.6v40C12.3,75.2,28.9,78.2,50.3,76.6z" style="fill: rgb(251, 205, 4);"></path></g><g id="__id28_sh0ej2ren"><path d="M447.9,181.4c-11.3-0.5-22.2-4.6-33.4-12.8c-15.4-11.1-30.6-29.3-45.2-54c-16.9-28.5-35-49.5-55.4-64.4 c-19.3-14.2-42.2-22.8-66.1-24.7c-40.8-3.3-79.2,12.1-116.4,27.1C102.9,64,76,74.7,50.3,76.6C28.9,78.2,12.3,75.2,0,67.4v27.9 c14.6,5.7,32,7.8,52.1,6.3c29.6-2.2,59.5-14.2,88.5-25.8c34.5-13.8,70.2-28.2,105.1-25.3c19.5,1.6,37,8.1,53.4,20 c17.6,12.8,33.5,31.4,48.6,56.8c30.2,51.1,63.6,77.7,99.3,79.1c1,0,2,0.1,3,0.1c17.9,0,34.9-6.2,50-15v-29.9 C485.6,172.1,466.9,182.1,447.9,181.4z" style="fill: rgb(0, 74, 173);"></path></g><g id="__id29_sh0ej2ren"><path d="M450,206.4c-1,0-2,0-3-0.1c-35.7-1.4-69.1-28-99.4-79.1c-15.1-25.5-31-44.1-48.6-56.8 c-16.4-11.9-33.9-18.5-53.4-20c-34.9-2.8-70.6,11.5-105.1,25.3c-29,11.6-58.9,23.6-88.5,25.8C32,103.1,14.6,101,0,95.3v26.5 c15.9,4.7,33.9,6.3,54,4.8c33.4-2.5,65.2-15.2,96-27.6c68.6-27.5,122.8-49.2,176.2,41c34.9,58.9,75.2,89.7,120,91.4 c1.3,0,2.6,0.1,3.9,0.1c17.9,0,34.7-4.7,49.9-11.7v-28.2C485,200.2,468,206.4,450,206.4z" style="fill: rgb(213, 44, 38);"></path></g></svg>