<svg xmlns="http://www.w3.org/2000/svg" xmlns:xlink="http://www.w3.org/1999/xlink" preserveAspectRatio="xMidYMid meet" version="1.0" viewBox="-2.1 -2.1 504.4 504.2" zoomAndPan="magnify" style="fill: rgb(0, 0, 0);" original_string_length="1062" width="504px" height="504px"><g id="__id23_sh0ej2ren"><path d="M498.37,364.42L384.06,250.11l114.3-114.3c3.97-3.97,1.16-10.75-4.45-10.75H375.17V6.31 c0-5.61-6.78-8.42-10.75-4.45l-114.3,114.3L135.81,1.86c-3.97-3.97-10.75-1.16-10.75,4.45v118.75H6.31c-5.61,0-8.42,6.78-4.45,10.75 l114.3,114.3L1.86,364.42c-3.97,3.97-1.16,10.75,4.45,10.75h118.75v118.52c0,5.61,6.78,8.42,10.75,4.45l114.31-114.3l114.3,114.3 c3.97,3.97,10.75,1.16,10.75-4.45V375.17h118.75C499.53,375.17,502.34,368.39,498.37,364.42z M337.68,260.42l-77.15,77.15 c-5.76,5.76-15.09,5.76-20.84,0l-77.15-77.15c-5.76-5.76-5.76-15.09,0-20.84l77.15-77.15c5.76-5.75,15.09-5.75,20.84,0l77.15,77.15 C343.44,245.33,343.44,254.67,337.68,260.42z" style="fill: rgb(203, 23, 44);"></path></g></svg>