<svg xmlns="http://www.w3.org/2000/svg" xmlns:xlink="http://www.w3.org/1999/xlink" preserveAspectRatio="xMidYMid meet" version="1.0" viewBox="89.1 140.0 285.6 256.1" zoomAndPan="magnify" style="fill: rgb(0, 0, 0);" original_string_length="19296" width="286px" height="256px"><g id="__id34_sh0ej2ren" style="fill: rgb(255, 215, 0);"><path d="M370.24,322.77c1.54,1.32,2.92,2.52,4.47,3.85c-1.19,1.83-2.29,3.72-3.59,5.46 c-3.46,4.68-6.79,9.49-10.59,13.89c-3.64,4.22-7.7,8.1-11.75,11.94c-2.92,2.77-6.06,5.3-9.22,7.8 c-5.27,4.17-10.87,7.84-16.73,11.14c-5.51,3.11-11.13,5.97-17.05,8.17c-5.96,2.21-11.98,4.29-18.05,6.18 c-3.2,0.99-6.56,1.5-9.87,2.13c-3.54,0.67-7.08,1.38-10.66,1.78c-3.43,0.38-6.91,0.38-10.36,0.57c-2.78,0.15-5.55,0.5-8.32,0.45 c-3.45-0.07-6.92-0.32-10.35-0.76c-2.58-0.33-5.19-0.86-7.64-1.72c-2.58-0.9-5.15-2.06-7.44-3.54c-3.02-1.94-5.93-4.13-8.6-6.54 c-1.97-1.77-3.58-3.97-5.14-6.14c-1.53-2.12-2.9-4.38-4.16-6.68c-2.28-4.16-4.35-8.44-6.65-12.59c-1.93-3.48-4.81-5.98-8.47-7.62 c-5.56-2.49-11.45-3.71-17.4-4.75c-4.96-0.87-9.93-1.63-14.88-2.53c-5.85-1.06-11.73-2.01-17.51-3.39 c-5.87-1.4-11.57-3.39-16.97-6.18c-6.81-3.53-12.83-8.04-17.95-13.76c-3.37-3.77-6.06-7.99-8.41-12.44 c-1.94-3.67-3.48-7.51-4.5-11.53c-0.77-3-1.34-6.05-1.92-9.1c-1.13-5.95-1.43-11.97-1.03-18c0.38-5.7,0.82-11.42,1.73-17.05 c0.77-4.74,2.24-9.37,3.44-14.03c0.45-1.73,0.95-3.46,1.53-5.15c0.94-2.71,1.92-5.4,2.97-8.06c1.11-2.81,2.21-5.64,3.5-8.37 c1.58-3.35,3.34-6.61,5.04-9.91c3.89-7.53,8.54-14.61,13.37-21.55c3.05-4.38,6.34-8.61,9.68-12.78 c4.69-5.85,9.44-11.66,14.32-17.35c3.01-3.51,6.33-6.75,9.5-10.14c1.31-1.4,2.56-2.84,3.97-4.42c1.68,1.43,3.3,2.8,5.04,4.28 c-1.39,1.54-2.71,2.96-3.99,4.43c-3.81,4.35-7.67,8.66-11.39,13.09c-3.54,4.21-6.93,8.56-10.39,12.84 c-4.31,5.34-8.7,10.62-12.93,16.03c-2.66,3.39-5.21,6.88-7.59,10.47c-3.39,5.11-6.77,10.24-9.39,15.83 c-1.25,2.67-2.71,5.24-3.93,7.92c-1.01,2.2-1.87,4.48-2.71,6.76c-1.03,2.75-2.11,5.5-2.93,8.32c-0.89,3.06-1.42,6.22-2.24,9.3 c-2.4,8.97-2.65,18.16-2.56,27.34c0.03,3.36,0.75,6.72,1.27,10.06c0.31,2.04,0.69,4.1,1.3,6.07c0.87,2.85,1.93,5.64,3.01,8.42 c0.6,1.55,1.29,3.1,2.17,4.51c1.57,2.54,3.26,5,4.97,7.45c3.34,4.78,7.68,8.51,12.47,11.76c6.94,4.71,14.68,7.55,22.73,9.61 c9.85,2.52,19.89,3.99,29.95,5.34c4.27,0.57,8.53,1.31,12.75,2.22c3.58,0.77,7.16,1.67,10.6,2.9c4.58,1.63,8.23,4.54,10.34,9.09 c2.06,4.45,4.08,8.92,6.23,13.33c2.02,4.14,4.52,7.98,7.79,11.26c2.47,2.47,5.14,4.74,8.19,6.46c1.84,1.04,3.88,1.74,5.85,2.53 c3.26,1.32,6.76,1.56,10.16,2.27c3.39,0.71,6.71,0.72,10.06,0.67c3.44-0.06,6.87-0.56,10.3-0.87c1.94-0.17,3.88-0.3,5.81-0.53 c1.53-0.19,3.05-0.48,4.57-0.77c1.75-0.34,3.5-0.71,5.24-1.1c1.78-0.39,3.56-0.77,5.31-1.25c2.99-0.81,6.02-1.57,8.94-2.59 c4.07-1.41,8.08-2.98,12.07-4.59c5.9-2.39,11.52-5.38,16.87-8.79c5.01-3.19,9.86-6.65,14.6-10.23c5.52-4.17,10.67-8.8,15.26-13.98 c3.91-4.42,7.68-8.98,11.32-13.62c2.06-2.63,3.72-5.57,5.58-8.36C369.48,323.54,369.84,323.22,370.24,322.77z" style="fill: inherit;"></path><path d="M168.77,148.98c1.02,0.82,1.92,1.54,2.83,2.26c0.6,0.47,0.74,0.9,0.17,1.57 c-4.16,4.86-7.88,10.04-11.47,15.34c-4.57,6.73-9.32,13.36-14.13,19.92c-3.09,4.21-6.39,8.27-9.71,12.31 c-2.86,3.48-5.96,6.77-8.82,10.26c-2.25,2.74-4.36,5.6-6.41,8.49c-1.8,2.54-3.58,5.1-5.09,7.82c-2.28,4.11-4.38,8.31-6.41,12.55 c-0.97,2.04-1.65,4.23-2.34,6.39c-1.05,3.29-2.14,6.58-2.92,9.93c-0.61,2.63-0.85,5.36-1.11,8.07c-0.26,2.7-0.37,5.42-0.51,8.13 c-0.25,4.83,0.43,9.58,1.63,14.21c1.05,4.04,2.56,7.94,4.45,11.71c2.53,5.05,6.11,9.26,10.13,13.09c3.24,3.09,6.98,5.6,11.05,7.52 c3.43,1.62,6.84,3.38,10.44,4.51c5.48,1.72,11.07,3.14,16.69,4.31c5.51,1.14,11.11,1.88,16.68,2.67c7,1,14.03,1.77,21.02,2.86 c5.01,0.78,9.95,1.86,14.55,4.21c3.93,2.01,6.61,5.12,8.45,8.99c1.83,3.85,3.3,7.88,5.2,11.69c2.67,5.35,5.98,10.3,10.95,13.83 c1.78,1.26,4.02,1.89,5.8,3.16c1.95,1.41,4.32,1.19,6.39,2.14c1.42,0.66,3.2,0.73,4.82,0.75c3.78,0.04,7.55-0.06,11.33-0.2 c1.95-0.07,3.9-0.22,5.82-0.54c3.21-0.54,6.44-1.08,9.58-1.92c5.51-1.47,11.11-2.79,16.41-4.85c5.94-2.3,11.69-5.15,17.33-8.12 c4.3-2.26,8.43-4.9,12.39-7.72c3.89-2.77,7.53-5.9,11.16-9.02c2.6-2.24,5.12-4.6,7.43-7.13c3.12-3.41,6.13-6.94,8.96-10.6 c2.71-3.5,5.13-7.21,7.65-10.85c0.49-0.71,0.89-1.48,1.38-2.29c1.26,1.04,2.45,1.96,3.56,2.97c0.19,0.18,0.19,0.83,0.02,1.12 c-3.38,5.71-7.14,11.18-11.39,16.28c-4.78,5.75-9.93,11.15-15.67,15.98c-4.59,3.86-9.34,7.5-14.38,10.76 c-5.68,3.67-11.56,6.99-17.82,9.55c-5.24,2.14-10.52,4.23-15.88,6.05c-3.46,1.18-7.09,1.9-10.66,2.7 c-3.18,0.72-6.38,1.31-9.59,1.87c-1.6,0.28-3.24,0.42-4.87,0.52c-3.62,0.21-7.24,0.48-10.87,0.46c-2.29-0.01-4.57-0.48-6.85-0.75 c-1.39-0.17-2.81-0.22-4.15-0.57c-2.1-0.55-4.18-1.23-6.2-2.01c-4.31-1.68-7.79-4.58-10.91-7.89c-2.67-2.83-4.68-6.16-6.36-9.65 c-1.97-4.09-3.84-8.24-5.78-12.34c-2.4-5.06-6.44-8.21-11.67-10c-4.82-1.65-9.77-2.67-14.81-3.36c-6.25-0.86-12.51-1.71-18.74-2.69 c-5.84-0.92-11.67-1.87-17.46-3.07c-6.11-1.26-12.12-2.97-17.81-5.57c-4.06-1.86-8.14-3.74-11.62-6.64 c-2.27-1.89-4.62-3.7-6.7-5.79c-3.48-3.5-6.34-7.49-8.41-11.99c-1.37-2.97-2.62-5.99-3.83-9.02c-0.48-1.21-0.77-2.52-1-3.81 c-0.44-2.43-0.94-4.86-1.14-7.32c-0.29-3.65-0.58-7.34-0.43-10.99c0.19-4.54,0.56-9.11,1.34-13.59c0.72-4.14,2.07-8.17,3.17-12.24 c1.58-5.84,4.15-11.3,6.78-16.7c1.81-3.72,4.03-7.26,6.26-10.75c4.46-6.96,9.42-13.56,14.82-19.83c2.63-3.05,5.08-6.26,7.61-9.39 c2.51-3.1,5.12-6.13,7.52-9.31c3.98-5.29,7.75-10.75,11.77-16.01c3.05-3.99,6.36-7.79,9.56-11.67 C168.16,149.46,168.46,149.25,168.77,148.98z" style="fill: inherit;"></path><path d="M351.79,306.86c1.2,1,2.37,1.93,3.46,2.95c0.15,0.14,0.03,0.76-0.15,1.04c-2.4,3.77-4.71,7.61-7.28,11.26 c-3.89,5.53-8.31,10.64-13.2,15.31c-5.35,5.1-11.07,9.76-17.27,13.83c-6.64,4.36-13.55,8.2-20.97,11 c-5.61,2.12-11.35,3.94-17.12,5.61c-3.38,0.98-6.91,1.43-10.39,2.04c-4.05,0.72-8.12,0.93-12.23,0.41c-1.6-0.2-3.29,0.05-4.85-0.29 c-2.51-0.56-5.06-1.19-7.39-2.23c-4.76-2.13-8.69-5.36-11.61-9.78c-2.7-4.08-4.65-8.53-6.82-12.87c-1.24-2.49-2.6-4.94-4.13-7.27 c-1.68-2.56-4.16-4.26-6.93-5.55c-3.87-1.8-7.96-2.93-12.17-3.5c-10.69-1.46-21.41-2.7-32.08-4.24 c-10.06-1.46-19.98-3.61-29.43-7.49c-7.54-3.1-14.44-7.22-20.02-13.26c-2.89-3.13-5.46-6.55-7.09-10.54 c-1.05-2.56-2.05-5.15-2.98-7.76c-0.41-1.15-0.63-2.38-0.83-3.59c-0.71-4.34-0.96-8.71-0.66-13.11c0.09-1.36,0.1-2.73,0.34-4.06 c0.64-3.51,1.2-7.06,2.16-10.49c1.23-4.39,2.99-8.62,5.27-12.58c2.05-3.55,4.06-7.15,6.42-10.49c2.41-3.41,5.19-6.57,7.85-9.8 c2.41-2.93,4.97-5.73,7.31-8.71c2.98-3.79,5.99-7.59,8.65-11.61c3.76-5.69,7.14-11.63,10.81-17.39 c4.23-6.64,8.54-13.22,12.92-19.76c1.62-2.41,3.53-4.62,5.31-6.93c0.17-0.22,0.32-0.46,0.51-0.75c1.05,0.86,1.93,1.59,2.93,2.4 c-0.86,1.11-1.74,2.13-2.49,3.24c-2.8,4.13-5.72,8.19-8.28,12.46c-3.99,6.64-7.69,13.46-11.58,20.16 c-3.57,6.14-7.22,12.23-10.86,18.34c-3.51,5.9-7.99,11.05-12.55,16.13c-4.19,4.66-8.31,9.41-11.46,14.85 c-1.85,3.18-3.62,6.45-5.02,9.85c-1.12,2.72-1.59,5.71-2.38,8.57c-1.41,5.12-1.19,10.35-0.98,15.55c0.07,1.83,0.66,3.65,1.11,5.45 c0.44,1.72,0.97,3.42,1.53,5.1c0.99,2.96,2.38,5.73,4.33,8.16c1.96,2.45,3.89,4.98,6.17,7.11c4.78,4.46,10.44,7.6,16.48,10.05 c9.21,3.73,18.82,5.93,28.62,7.27c9.1,1.24,18.24,2.22,27.36,3.36c5.23,0.66,10.44,1.41,15.51,3.01 c6.31,1.99,10.78,5.95,13.69,11.87c2.17,4.42,4.51,8.77,6.9,13.09c1.66,3,3.89,5.53,6.72,7.55c1.92,1.37,4.03,2.26,6.09,3.32 c2.2,1.13,4.47,1.69,6.79,2c2.4,0.32,4.87,0.19,7.31,0.21c1.11,0.01,2.23,0,3.32-0.13c2.67-0.33,5.4-0.5,8-1.16 c5.09-1.28,10.21-2.55,15.12-4.36c5.15-1.9,10.17-4.25,15.07-6.74c6.02-3.06,11.72-6.73,16.89-11.09c4.49-3.77,8.88-7.69,13-11.85 c5.46-5.52,10.13-11.7,14.21-18.32C349.77,310.13,350.75,308.55,351.79,306.86z" style="fill: inherit;"></path><path d="M183.49,161.69c0.72,0.57,1.39,1.1,2.16,1.7c-0.98,1.33-1.95,2.58-2.86,3.87 c-8.79,12.44-15.46,26-21.21,40.05c-2.86,6.99-5.77,13.95-8.76,20.88c-2.73,6.33-6.65,11.87-11.43,16.84 c-2.43,2.52-4.82,5.13-6.85,7.97c-2.37,3.32-4.18,6.98-5.69,10.84c-1.93,4.92-1.94,9.98-1.69,15.04c0.12,2.38,1.05,4.77,1.93,7.04 c3.1,7.97,8.89,13.59,16.11,17.87c7.34,4.34,15.35,6.88,23.61,8.77c10.08,2.3,20.34,3.31,30.6,4.29 c6.88,0.66,13.74,1.45,20.58,2.42c4.31,0.61,8.37,2.21,11.9,4.81c2.49,1.83,4.34,4.29,6.02,6.92c2.87,4.5,5.24,9.34,8.83,13.36 c1.28,1.43,2.76,2.69,4.2,3.96c2.2,1.93,4.72,3.35,7.56,4.09c3.15,0.82,6.37,1.3,9.64,0.95c3.51-0.38,7.08-0.58,10.51-1.36 c7.13-1.61,13.8-4.5,20.26-7.88c6.04-3.16,11.66-6.91,17.01-11.12c4.47-3.52,8.64-7.35,12.44-11.56c5.15-5.7,9.8-11.79,13.54-18.53 c0.54-0.97,1.16-1.9,1.83-2.99c1.03,0.87,2.06,1.66,2.96,2.58c0.19,0.19,0.05,0.91-0.16,1.26c-1.64,2.74-3.25,5.51-5.03,8.16 c-4.66,6.97-10.05,13.32-16.21,19.02c-4.9,4.54-10.19,8.58-15.85,12.16c-5.9,3.73-12.1,6.81-18.58,9.38 c-6.07,2.41-12.24,4.32-18.74,5.23c-4.3,0.6-8.53,0.85-12.79-0.17c-1.11-0.27-2.36-0.1-3.4-0.5c-3.54-1.39-7.27-2.65-9.92-5.47 c-2.41-2.56-4.53-5.45-6.45-8.4c-2.46-3.77-4.47-7.84-6.91-11.62c-2.52-3.91-6.36-6.18-10.66-7.76c-5.08-1.87-10.4-2.49-15.72-3.08 c-8.78-0.98-17.58-1.7-26.34-2.83c-9.48-1.22-18.83-3.17-27.86-6.43c-4.88-1.76-9.5-4.06-13.77-6.96 c-5.2-3.54-9.54-7.98-12.54-13.61c-1.81-3.39-2.91-6.98-3.71-10.75c-0.87-4.09-0.35-8.11-0.2-12.15c0.07-2.02,0.79-4.04,1.39-6.01 c1.49-4.96,3.76-9.56,6.79-13.74c2.04-2.8,4.3-5.45,6.5-8.13c2.78-3.39,5.81-6.6,8.35-10.17c2.35-3.3,4.35-6.88,6.23-10.47 c6.17-11.78,11.22-24.13,17.85-35.68c4.3-7.48,8.63-14.95,14.09-21.68C183.16,161.98,183.26,161.91,183.49,161.69z" style="fill: inherit;"></path><path d="M188.15,165.67c0.69,0.59,1.26,1.07,1.91,1.63c-0.87,1.22-1.71,2.41-2.56,3.6 c-9.01,12.74-15.41,26.74-19.9,41.62c-2.42,8.03-4.37,16.18-5.9,24.44c-0.81,4.38-1.92,8.73-3.86,12.8 c-1.36,2.85-3.52,5.11-5.7,7.35c-3.04,3.11-6.07,6.24-8.03,10.19c-0.71,1.43-1.08,3.04-1.78,4.48c-1.24,2.55-0.91,5.33-0.9,7.94 c0.01,2.25,0.89,4.63,1.89,6.71c2.24,4.7,5.83,8.31,10.12,11.22c8.02,5.45,17.06,8.28,26.41,10.26 c10.63,2.25,21.42,3.06,32.24,3.73c5.62,0.35,11.23,0.76,16.76,1.98c6.42,1.42,11.68,4.57,15.62,9.89 c2.49,3.36,4.98,6.72,7.66,9.92c1.74,2.08,3.8,3.84,6.14,5.35c1.57,1.01,3.05,2.16,4.84,2.62c3.56,0.93,7.17,1.62,10.9,1.29 c10-0.9,18.79-4.97,27.2-10.13c7.47-4.58,14.18-10.09,20.18-16.45c6.02-6.39,11.08-13.52,15.23-21.27c0.09-0.17,0.2-0.34,0.28-0.49 c0.12-0.01,0.22-0.05,0.26-0.02c3.24,2.31,3.28,2.34,1.38,5.77c-3.36,6.06-7.41,11.64-11.96,16.87 c-5.09,5.84-10.86,10.89-17.15,15.41c-5.54,3.98-11.46,7.32-17.68,10.04c-5.8,2.53-11.8,4.62-18.23,5.08 c-3.54,0.25-7.04,0.29-10.47-0.84c-0.78-0.26-1.74-0.08-2.43-0.45c-2.24-1.21-4.46-2.48-6.58-3.9c-4.86-3.26-7.75-8.23-10.74-13.02 c-4.97-7.95-12.03-12.44-21.25-13.47c-7.82-0.87-15.66-1.51-23.5-2.21c-9.72-0.87-19.4-2.07-28.85-4.58 c-8-2.13-15.68-5.09-22.41-10.03c-4.82-3.54-8.75-7.91-10.98-13.56c-0.6-1.52-0.65-3.25-1.17-4.82c-0.8-2.45-0.48-4.93-0.25-7.35 c0.37-3.92,1.54-7.68,3.74-11.02c1.49-2.26,2.99-4.52,4.69-6.63c1.75-2.16,3.83-4.06,5.59-6.21c1.46-1.78,2.81-3.68,3.98-5.66 c2.61-4.43,4.11-9.33,5.6-14.22c2.62-8.59,5.1-17.23,8.48-25.57c3.62-8.93,7.69-17.65,12.73-25.88c2.39-3.9,5.03-7.66,7.58-11.47 C187.5,166.29,187.81,166.04,188.15,165.67z" style="fill: inherit;"></path><path d="M192.74,169.59c0.31,0.26,0.57,0.51,0.86,0.7c0.57,0.38,0.52,0.72,0.14,1.27 c-1.96,2.82-4.06,5.56-5.76,8.53c-2.41,4.18-4.68,8.46-6.71,12.84c-3.13,6.76-5.47,13.81-7.14,21.08 c-1.48,6.41-2.24,12.93-2.55,19.47c-0.21,4.41,0.25,8.86,0.24,13.29c-0.01,3.71-0.02,7.44-0.49,11.1 c-0.34,2.65-1.81,4.99-3.88,6.84c-3.03,2.72-5.75,5.73-7.95,9.16c-0.55,0.86-0.71,1.99-1,3.01c-0.13,0.46-0.08,0.97-0.24,1.41 c-1.13,2.97-0.05,5.65,1.24,8.2c2.08,4.09,5.52,6.85,9.42,9.08c9.31,5.32,19.52,7.72,30.04,8.76c7.43,0.74,14.9,1.04,22.36,1.47 c5.68,0.33,11.32,0.9,16.8,2.52c3.85,1.14,7.31,3.08,10.26,5.77c2.74,2.5,5.22,5.27,7.92,7.82c1.95,1.84,4.03,3.57,6.13,5.24 c1.13,0.9,2.36,1.76,3.68,2.33c3.66,1.59,7.52,2.11,11.52,1.84c7.96-0.54,14.92-3.81,21.34-8.19c4.28-2.91,8.34-6.18,12.22-9.62 c4.15-3.68,7.91-7.81,11-12.45c2.68-4.01,5.14-8.17,7.71-12.26c0.08-0.13,0.19-0.25,0.4-0.51c0.86,0.74,1.72,1.41,2.48,2.19 c0.16,0.16,0.02,0.76-0.16,1.06c-2.16,3.59-4.23,7.25-6.56,10.73c-3.41,5.1-7.44,9.7-11.92,13.89 c-5.99,5.59-12.53,10.38-19.84,14.14c-3.71,1.91-7.52,3.56-11.56,4.53c-4.11,0.99-8.32,1.65-12.53,0.66 c-2.38-0.56-4.85-1.15-6.99-2.27c-4-2.11-7.22-5.25-10.2-8.67c-2.88-3.31-5.87-6.56-9.17-9.43c-3.64-3.16-8.24-4.45-12.93-5.34 c-6.47-1.22-13.03-1.37-19.57-1.68c-9.59-0.45-19.14-1.3-28.52-3.48c-7.47-1.74-14.69-4.21-21.14-8.48 c-4.33-2.87-8.07-6.38-9.85-11.4c-0.68-1.93-0.68-4.12-0.83-6.2c-0.08-1.02,0.08-2.09,0.34-3.09c0.6-2.31,1.42-4.56,3.01-6.39 c2.43-2.79,4.98-5.47,7.41-8.27c2.24-2.58,3.8-5.53,4.19-8.97c0.62-5.43,1.25-10.86,1.66-16.31c0.76-10.06,2.75-19.85,5.92-29.42 c2.87-8.69,6.56-17.01,11.22-24.86c2.25-3.8,4.92-7.36,7.4-11.02C192.3,170.01,192.52,169.83,192.74,169.59z" style="fill: inherit;"></path><path d="M324.97,283.64c0.83,0.75,1.6,1.33,2.2,2.05c0.19,0.23,0.08,0.91-0.12,1.25 c-1.99,3.37-3.92,6.78-6.08,10.04c-3.9,5.9-8.72,11.01-14.03,15.66c-4.84,4.23-10.08,7.91-15.93,10.54 c-4.44,2-9.12,3.44-14.09,3.23c-2.35-0.1-4.74-0.3-6.93-1.41c-0.8-0.4-1.83-0.37-2.58-0.83c-3.09-1.91-6.09-3.96-8.81-6.4 c-3.1-2.79-6.13-5.69-9.49-8.14c-4.09-2.97-8.85-4.68-13.86-5.32c-5.3-0.68-10.64-1.14-15.98-1.44 c-8.62-0.49-17.26-0.61-25.75-2.41c-7.13-1.51-13.98-3.75-19.94-8.1c-2.27-1.65-4.25-3.63-5.46-6.23c-1.01-2.18-1.23-4.4-0.59-6.81 c0.87-3.3,2.77-5.86,5.03-8.29c1.53-1.65,2.91-3.44,4.34-5.18c1.67-2.04,2.05-4.52,1.98-6.99c-0.08-2.78-0.42-5.57-0.88-8.32 c-1.16-6.86-2.44-13.7-2.38-20.68c0.1-10.62,2.4-20.83,6.14-30.73c2.75-7.3,6.19-14.26,10.58-20.72c1.28-1.88,2.54-3.76,3.97-5.86 c0.51,0.69,0.87,1.19,1.35,1.85c-0.7,0.96-1.57,2.14-2.41,3.34c-3.41,4.89-6.23,10.1-8.66,15.54c-3.33,7.47-5.77,15.22-6.9,23.33 c-1.3,9.36-0.91,18.64,1.77,27.77c1.21,4.14,2.44,8.28,3.41,12.47c1.27,5.48-0.13,10.3-3.96,14.48c-1.53,1.68-3.15,3.45-4.05,5.49 c-1.01,2.28-2.37,4.7-1.53,7.43c0.28,0.9,0.63,1.82,1.13,2.61c1.65,2.57,3.99,4.44,6.62,5.91c6.1,3.42,12.74,5.18,19.62,5.84 c8.35,0.79,16.73,1.14,25.1,1.74c6.64,0.48,13.2,1.4,19.31,4.27c3.7,1.74,7.09,3.94,10.23,6.56c2.31,1.93,4.57,3.94,7,5.7 c1.82,1.31,3.78,2.58,5.86,3.35c3.92,1.45,7.97,1.96,12.23,1.22c8.26-1.45,14.96-5.75,21.22-10.98c8.57-7.17,15.31-15.8,20.62-25.6 C324.46,284.51,324.67,284.17,324.97,283.64z" style="fill: inherit;"></path><path d="M200.06,175.95c0.45,0.39,0.81,0.7,1.16,1c-1.13,1.7-2.24,3.34-3.32,4.99 c-6.51,9.98-10.86,20.79-12.41,32.64c-0.79,6.07-0.38,12.1,0.97,18.1c1.26,5.58,3.69,10.62,6.48,15.53c1.93,3.4,3.92,6.8,4.97,10.6 c0.7,2.56,0.66,5.19-0.01,7.8c-0.71,2.73-2.33,5.05-3.37,7.6c-1.18,2.88-2.88,5.86-1.44,9.25c1.11,2.61,3.11,4.22,5.56,5.45 c5.62,2.83,11.72,3.59,17.86,4.19c7.55,0.74,15.13,1.27,22.66,2.18c5.42,0.66,10.62,2.34,15.47,4.88c3.81,1.99,7.54,4.15,11.3,6.24 c1.94,1.08,3.8,2.32,5.82,3.21c5.07,2.23,10.3,2.4,15.61,0.81c6.13-1.83,11.14-5.47,15.73-9.76c6.3-5.89,11.42-12.69,15.51-20.28 c0.17-0.32,0.36-0.62,0.55-0.93c0.08-0.13,0.2-0.23,0.43-0.48c0.63,0.58,1.31,1.07,1.79,1.72c0.19,0.26,0.01,0.92-0.19,1.29 c-2.63,4.95-5.63,9.67-9.22,13.99c-3.63,4.38-7.61,8.42-12.17,11.85c-4.48,3.36-9.32,6.12-14.85,7.25 c-3.84,0.78-7.69,0.72-11.55-0.58c-4.58-1.54-8.35-4.35-12.27-6.97c-4.89-3.27-9.98-6.21-15.65-7.95 c-4.64-1.42-9.42-2.19-14.26-2.5c-6.46-0.43-12.93-0.7-19.38-1.23c-5.9-0.49-11.75-1.37-17.25-3.75c-2.29-0.99-4.46-2.18-6.27-3.91 c-2.45-2.34-3.58-5.78-2.09-9.47c1.1-2.72,2.6-5.16,4.08-7.66c2.22-3.74,3.45-7.8,2.09-12.13c-1.07-3.37-2.26-6.75-3.79-9.93 c-6.2-12.89-7.77-26.21-4.33-40.14c2.05-8.28,5.05-16.15,9.44-23.47c1.76-2.94,3.73-5.76,5.62-8.63 C199.51,176.51,199.75,176.3,200.06,175.95z" style="fill: inherit;"></path><path d="M315.05,275.24c0.66,0.5,1.34,0.93,1.87,1.49c0.19,0.21,0.16,0.83,0,1.14c-2.27,4.36-4.9,8.51-8,12.33 c-3.89,4.79-8.19,9.15-13.47,12.45c-4.98,3.11-10.33,5.01-16.26,4.27c-2.45-0.3-4.86-0.96-7.19-2.14 c-6.16-3.13-12.4-6.12-18.76-8.81c-6.28-2.66-13-3.71-19.76-4.48c-7.28-0.83-14.66-1.03-21.78-3.01c-3.05-0.85-5.92-2.04-8.27-4.33 c-1.99-1.94-2.44-4.31-2.08-6.82c0.27-1.89,1.02-3.72,1.64-5.55c0.56-1.62,1.38-3.16,1.83-4.81c1.3-4.75,0.24-9.18-2.31-13.26 c-2.33-3.72-4.85-7.31-7.25-10.99c-5.3-8.14-7.57-17.1-6.91-26.76c0.48-7.03,2.31-13.75,5.03-20.25 c2.36-5.65,5.38-10.91,8.92-15.88c0.27-0.38,0.56-0.75,0.9-1.2c0.46,0.41,0.85,0.74,1.28,1.12c-0.26,0.39-0.5,0.75-0.73,1.11 c-1.76,2.79-3.69,5.48-5.25,8.38c-3.63,6.76-6.25,13.89-7.28,21.56c-1.11,8.25-0.03,16.14,3.42,23.69 c2.16,4.72,5.5,8.67,8.63,12.76c2.03,2.64,3.9,5.43,5.61,8.29c1.87,3.14,2.25,6.66,1.55,10.2c-0.5,2.54-1.3,5.02-2.12,7.48 c-1.22,3.65,0.19,7.75,3.52,9.87c3.16,2.01,6.72,2.94,10.34,3.55c7.08,1.19,14.2,2.13,21.26,3.41c6.38,1.16,12.43,3.46,18.34,6.1 c3.46,1.54,6.97,2.97,10.46,4.45c0.94,0.4,1.87,0.86,2.84,1.16c5.97,1.82,11.73,1.28,17.3-1.56c5.59-2.85,9.96-7.11,13.9-11.88 c3.08-3.73,5.82-7.7,8.05-12C314.53,275.96,314.78,275.64,315.05,275.24z" style="fill: inherit;"></path><path d="M206.29,181.28c0.42,0.36,0.74,0.64,1.11,0.96c-0.28,0.44-0.51,0.81-0.76,1.16 c-3.16,4.45-5.8,9.19-7.68,14.3c-2.88,7.81-4.13,15.83-2.27,24.09c1.24,5.51,3.57,10.53,7.29,14.79c3.02,3.45,6.22,6.75,9.4,10.06 c2.94,3.06,5.37,6.46,6.86,10.43c0.57,1.52,0.76,3.25,0.81,4.89c0.07,2.09-0.21,4.19-0.28,6.29c-0.07,2.23-0.16,4.52,1.05,6.48 c1.15,1.86,2.82,3.34,4.89,4.06c3.46,1.21,6.97,2.31,10.51,3.25c5.25,1.4,10.6,2.42,15.8,3.96c6.38,1.88,12.66,4.12,18.98,6.22 c5.52,1.83,11.11,2.38,16.74,0.66c4.76-1.45,8.53-4.45,11.92-7.97c3.68-3.82,6.66-8.16,9.23-12.79c0.15-0.27,0.35-0.52,0.52-0.77 c0.13,0.03,0.22,0.03,0.28,0.07c1.84,1.31,1.87,1.32,0.74,3.34c-3.49,6.26-7.7,11.95-13.27,16.53c-3.02,2.48-6.31,4.56-10.13,5.51 c-2.97,0.74-6,0.89-9.1,0.42c-6.22-0.93-11.87-3.54-17.68-5.65c-8.29-3.02-16.81-5.07-25.5-6.51c-4.8-0.79-9.59-1.66-14.16-3.5 c-4.21-1.69-6.64-5.69-5.98-10.11c0.42-2.82,0.85-5.64,1.04-8.48c0.31-4.69-1.72-8.65-4.54-12.15c-3.33-4.13-6.99-7.99-10.36-12.1 c-5.7-6.96-8.33-15.04-8.13-24c0.13-5.67,1.36-11.15,3.32-16.47c2.12-5.74,5.15-10.97,8.59-16 C205.74,181.97,205.97,181.7,206.29,181.28z" style="fill: inherit;"></path><path d="M305.55,266.89c0.67,0.6,1.22,1.1,1.95,1.76c-1.61,2.42-3.12,4.86-4.81,7.16 c-2.99,4.08-6.61,7.5-11.17,9.77c-3.13,1.57-6.49,2.44-10.03,2.19c-2.84-0.2-5.73-0.31-8.51-0.89c-3.47-0.72-6.84-1.86-10.25-2.84 c-7.17-2.06-14.35-4.1-21.51-6.23c-3.03-0.9-5.98-2.07-8.48-4.07c-3.37-2.71-3.77-6.54-3.98-10.52c-0.11-2.18-0.56-4.41-1.25-6.49 c-2.21-6.62-7.18-11.16-12.18-15.67c-4.4-3.96-8.68-8.01-11.74-13.19c-2.54-4.31-3.8-8.95-4.02-13.88 c-0.29-6.65,0.93-13.05,3.89-19.01c1.71-3.46,3.77-6.75,5.68-10.11c0.13-0.23,0.35-0.41,0.59-0.68c0.33,0.3,0.62,0.56,0.95,0.87 c-0.25,0.4-0.46,0.77-0.7,1.13c-2.29,3.33-4.28,6.82-5.69,10.61c-3.04,8.15-3.96,16.41-0.85,24.79c1.83,4.94,4.83,9.08,8.65,12.64 c3.62,3.38,7.35,6.64,10.97,10.02c3.13,2.92,5.88,6.23,7.54,10.18c1.11,2.64,1.82,5.5,2.29,8.33c0.71,4.29,2.4,7.83,6.28,10.03 c1.63,0.92,3.32,1.81,5.09,2.39c7.12,2.36,14.25,4.69,21.43,6.86c4.61,1.39,9.31,2.56,14.16,2.71c5.67,0.17,10.8-1.49,15.3-5.02 c3.96-3.11,6.89-7.06,9.48-11.31C304.88,267.97,305.16,267.53,305.55,266.89z" style="fill: inherit;"></path><path d="M301.51,263.64c0.18,0.07,0.26,0.08,0.32,0.12c1.45,1.16,1.44,1.16,0.44,2.76 c-3.05,4.85-6.82,9.03-11.99,11.6c-2.17,1.07-4.67,1.6-7.08,2c-6.55,1.08-12.85-0.53-19.06-2.31c-5.33-1.53-10.6-3.29-15.8-5.21 c-3.89-1.44-7.31-3.73-9.1-7.69c-0.9-1.98-1.43-4.13-2.05-6.23c-1.72-5.76-4.87-10.65-9.28-14.67c-4.24-3.88-8.71-7.51-12.96-11.38 c-5.15-4.69-9.14-10.14-10.39-17.23c-0.99-5.64-0.36-11.14,1.35-16.55c1.33-4.19,3.48-7.97,5.86-11.63 c0.15-0.23,0.32-0.44,0.48-0.67c0.97,0.37,0.99,0.87,0.47,1.65c-2.52,3.73-4.51,7.72-5.66,12.08c-2.44,9.24-1.2,17.83,4.66,25.54 c2.87,3.78,6.61,6.69,10.19,9.77c3.75,3.22,7.58,6.39,11.03,9.93c3.03,3.11,5.32,6.85,6.86,10.99c0.79,2.12,1.6,4.24,2.62,6.25 c1.63,3.21,4.33,5.39,7.49,7c6.52,3.34,13.45,5.53,20.59,6.96c3.22,0.65,6.56,1.06,9.84,1.02c6.18-0.08,11.46-2.61,15.68-7.12 c1.76-1.88,3.22-4.06,4.82-6.1C301.05,264.23,301.29,263.92,301.51,263.64z" style="fill: inherit;"></path></g></svg>