<svg xmlns="http://www.w3.org/2000/svg" xmlns:xlink="http://www.w3.org/1999/xlink" preserveAspectRatio="xMidYMid meet" version="1.0" viewBox="-0.9 0.0 496.5 500.0" zoomAndPan="magnify" style="fill: rgb(0, 0, 0);" original_string_length="3528" width="497px" height="500px"><g id="__id25_sh0ej2ren"><path d="M487.63,279.75l-128.28-29.28c-0.5-0.11-0.5-0.82,0-0.94l128.29-29.28c4.92-1.12,8-6.03,6.88-10.95l-3.41-14.93 l-3.41-14.93c-1.12-4.92-6.03-8-10.95-6.88l-128.29,29.28c-0.5,0.11-0.81-0.53-0.41-0.85l102.88-82.04c3.95-3.15,4.6-8.9,1.45-12.85 l-9.55-11.97l-9.55-11.97c-3.15-3.95-8.9-4.6-12.85-1.45l-102.88,82.04c-0.4,0.32-0.96-0.12-0.73-0.59l57.09-118.55 c2.19-4.55,0.28-10.01-4.27-12.21l-13.8-6.64l-13.8-6.64c-4.55-2.19-10.02-0.28-12.21,4.27l-57.09,118.55 c-0.22,0.46-0.92,0.3-0.92-0.21V9.14c0-5.05-4.09-9.14-9.14-9.14h-15.32h-15.32c-5.05,0-9.14,4.09-9.14,9.14v131.58 c0,0.51-0.69,0.67-0.92,0.21L164.9,22.38c-2.19-4.55-7.66-6.46-12.21-4.27l-13.8,6.64l-13.8,6.64c-4.55,2.19-6.46,7.66-4.27,12.21 l57.09,118.55c0.22,0.46-0.33,0.9-0.73,0.59L74.31,80.71c-3.95-3.15-9.7-2.5-12.85,1.45l-9.55,11.97l-9.55,11.97 c-3.15,3.95-2.5,9.7,1.45,12.85l102.88,82.04c0.4,0.32,0.09,0.96-0.41,0.85L18,172.56c-4.92-1.12-9.83,1.96-10.95,6.88l-3.41,14.93 L0.23,209.3c-1.12,4.92,1.96,9.83,6.88,10.95l128.28,29.28c0.5,0.11,0.5,0.83,0,0.94L7.11,279.75c-4.92,1.12-8,6.03-6.88,10.95 l3.41,14.93l3.41,14.93c1.12,4.92,6.03,8,10.95,6.88l128.29-29.28c0.5-0.11,0.81,0.53,0.41,0.85L43.81,381.05 c-3.95,3.15-4.6,8.9-1.45,12.85l9.55,11.97l9.55,11.97c3.15,3.95,8.9,4.6,12.85,1.45l102.88-82.04c0.4-0.32,0.96,0.12,0.73,0.59 l-57.09,118.55c-2.19,4.55-0.28,10.01,4.27,12.21l13.8,6.64l13.8,6.65c4.55,2.19,10.01,0.28,12.21-4.27L222,359.07 c0.22-0.46,0.92-0.3,0.92,0.21v131.58c0,5.05,4.09,9.14,9.14,9.14h15.31h15.32c5.05,0,9.14-4.09,9.14-9.14V359.27 c0-0.51,0.69-0.67,0.92-0.21l57.1,118.56c2.19,4.55,7.66,6.46,12.21,4.27l13.8-6.64l13.8-6.64c4.55-2.19,6.46-7.66,4.27-12.21 l-57.09-118.55c-0.22-0.46,0.33-0.9,0.73-0.59l102.88,82.04c3.95,3.15,9.7,2.5,12.85-1.45l9.55-11.97l9.55-11.97 c3.15-3.95,2.5-9.7-1.45-12.85l-102.88-82.04c-0.4-0.32-0.09-0.96,0.41-0.85l128.28,29.28c4.92,1.12,9.83-1.96,10.95-6.88 l3.41-14.93l3.41-14.93C495.64,285.78,492.55,280.87,487.63,279.75z M347.5,250.47l-47.91,8.24c-2.96,0.51-3.84,4.34-1.39,6.09 l39.58,28.21c0.44,0.31,0.11,1-0.41,0.86l-46.73-13.36c-2.89-0.83-5.34,2.25-3.89,4.88l23.42,42.59c0.26,0.47-0.34,0.95-0.74,0.59 l-36.31-32.31c-2.25-2-5.79-0.29-5.63,2.71l2.62,48.54c0.03,0.54-0.72,0.71-0.93,0.21l-18.7-44.88c-1.16-2.78-5.09-2.78-6.24,0 l-18.69,44.86c-0.21,0.5-0.95,0.33-0.93-0.21l2.62-48.53c0.16-3-3.38-4.71-5.63-2.71l-36.31,32.31c-0.4,0.36-1-0.12-0.74-0.59 L208,285.4c1.45-2.63-1-5.71-3.89-4.88l-46.74,13.36c-0.52,0.15-0.85-0.54-0.41-0.86l39.59-28.22c2.45-1.74,1.57-5.58-1.39-6.09 l-47.9-8.24c-0.53-0.09-0.53-0.86,0-0.95l47.9-8.24c2.96-0.51,3.84-4.34,1.39-6.09l-39.59-28.21c-0.44-0.31-0.11-1,0.41-0.86 l46.74,13.36c2.89,0.83,5.34-2.25,3.89-4.88l-23.42-42.59c-0.26-0.47,0.34-0.95,0.74-0.59l36.31,32.31c2.25,2,5.79,0.29,5.63-2.71 l-2.62-48.54c-0.03-0.54,0.72-0.71,0.93-0.21l18.7,44.87c1.16,2.78,5.09,2.78,6.24,0l18.69-44.87c0.21-0.5,0.95-0.33,0.93,0.21 l-2.62,48.54c-0.16,3,3.38,4.71,5.63,2.71l36.31-32.31c0.4-0.36,1,0.12,0.74,0.59l-23.42,42.59c-1.45,2.63,1,5.71,3.89,4.88 l46.74-13.36c0.52-0.15,0.85,0.54,0.41,0.86L298.2,235.2c-2.45,1.74-1.57,5.58,1.39,6.09l47.9,8.24 C348.03,249.62,348.03,250.38,347.5,250.47z" style="fill: rgb(251, 205, 4);"></path></g></svg>